<mxfile host="app.diagrams.net" agent="Mozilla/5.0 (Macintosh; Intel Mac OS X 10_15_7) AppleWebKit/537.36 (KHTML, like Gecko) Chrome/135.0.0.0 Safari/537.36" version="27.0.5">
  <diagram name="Page-1" id="_OnhlyQfAyMmrkc14d3p">
    <mxGraphModel dx="1273" dy="826" grid="1" gridSize="10" guides="1" tooltips="1" connect="1" arrows="1" fold="1" page="1" pageScale="1" pageWidth="827" pageHeight="1169" math="0" shadow="0">
      <root>
        <mxCell id="0" />
        <mxCell id="1" parent="0" />
        <mxCell id="OOl197uW_nd8CPdRbvd--1" value="&lt;b&gt;&lt;font style=&quot;font-size: 14px;&quot;&gt;commonMain&lt;/font&gt;&lt;/b&gt;" style="rounded=1;whiteSpace=wrap;html=1;fillColor=#dae8fc;strokeColor=#6c8ebf;" vertex="1" parent="1">
          <mxGeometry x="280" y="40" width="120" height="80" as="geometry" />
        </mxCell>
        <mxCell id="OOl197uW_nd8CPdRbvd--6" style="edgeStyle=orthogonalEdgeStyle;rounded=0;orthogonalLoop=1;jettySize=auto;html=1;entryX=0.5;entryY=1;entryDx=0;entryDy=0;" edge="1" parent="1" source="OOl197uW_nd8CPdRbvd--3" target="OOl197uW_nd8CPdRbvd--1">
          <mxGeometry relative="1" as="geometry">
            <Array as="points">
              <mxPoint x="180" y="140" />
              <mxPoint x="340" y="140" />
            </Array>
          </mxGeometry>
        </mxCell>
        <mxCell id="OOl197uW_nd8CPdRbvd--3" value="&lt;b&gt;&lt;font style=&quot;font-size: 14px;&quot;&gt;jvmMain&lt;/font&gt;&lt;/b&gt;" style="rounded=1;whiteSpace=wrap;html=1;fillColor=#dae8fc;strokeColor=#6c8ebf;" vertex="1" parent="1">
          <mxGeometry x="120" y="160" width="120" height="80" as="geometry" />
        </mxCell>
        <mxCell id="OOl197uW_nd8CPdRbvd--5" style="edgeStyle=orthogonalEdgeStyle;rounded=0;orthogonalLoop=1;jettySize=auto;html=1;entryX=1;entryY=0.5;entryDx=0;entryDy=0;" edge="1" parent="1" source="OOl197uW_nd8CPdRbvd--4" target="OOl197uW_nd8CPdRbvd--1">
          <mxGeometry relative="1" as="geometry">
            <Array as="points">
              <mxPoint x="700" y="80" />
            </Array>
          </mxGeometry>
        </mxCell>
        <mxCell id="OOl197uW_nd8CPdRbvd--4" value="&lt;span style=&quot;font-size: 14px;&quot;&gt;&lt;b&gt;commonTest&lt;/b&gt;&lt;/span&gt;" style="rounded=1;whiteSpace=wrap;html=1;fillColor=#d5e8d4;strokeColor=#82b366;" vertex="1" parent="1">
          <mxGeometry x="640" y="160" width="120" height="80" as="geometry" />
        </mxCell>
        <mxCell id="OOl197uW_nd8CPdRbvd--8" style="edgeStyle=orthogonalEdgeStyle;rounded=0;orthogonalLoop=1;jettySize=auto;html=1;entryX=0.5;entryY=1;entryDx=0;entryDy=0;" edge="1" parent="1" source="OOl197uW_nd8CPdRbvd--7" target="OOl197uW_nd8CPdRbvd--1">
          <mxGeometry relative="1" as="geometry" />
        </mxCell>
        <mxCell id="OOl197uW_nd8CPdRbvd--7" value="&lt;b&gt;&lt;font style=&quot;font-size: 14px;&quot;&gt;jsMain&lt;/font&gt;&lt;/b&gt;" style="rounded=1;whiteSpace=wrap;html=1;fillColor=#dae8fc;strokeColor=#6c8ebf;" vertex="1" parent="1">
          <mxGeometry x="280" y="160" width="120" height="80" as="geometry" />
        </mxCell>
        <mxCell id="OOl197uW_nd8CPdRbvd--10" style="edgeStyle=orthogonalEdgeStyle;rounded=0;orthogonalLoop=1;jettySize=auto;html=1;entryX=0.5;entryY=1;entryDx=0;entryDy=0;" edge="1" parent="1" source="OOl197uW_nd8CPdRbvd--9" target="OOl197uW_nd8CPdRbvd--1">
          <mxGeometry relative="1" as="geometry">
            <Array as="points">
              <mxPoint x="500" y="140" />
              <mxPoint x="340" y="140" />
            </Array>
          </mxGeometry>
        </mxCell>
        <mxCell id="OOl197uW_nd8CPdRbvd--9" value="&lt;b&gt;&lt;font style=&quot;font-size: 14px;&quot;&gt;nativeMain&lt;/font&gt;&lt;/b&gt;" style="rounded=1;whiteSpace=wrap;html=1;fillColor=#dae8fc;strokeColor=#6c8ebf;" vertex="1" parent="1">
          <mxGeometry x="440" y="160" width="120" height="80" as="geometry" />
        </mxCell>
        <mxCell id="OOl197uW_nd8CPdRbvd--12" style="edgeStyle=orthogonalEdgeStyle;rounded=0;orthogonalLoop=1;jettySize=auto;html=1;entryX=0.5;entryY=1;entryDx=0;entryDy=0;" edge="1" parent="1" source="OOl197uW_nd8CPdRbvd--11" target="OOl197uW_nd8CPdRbvd--3">
          <mxGeometry relative="1" as="geometry" />
        </mxCell>
        <mxCell id="OOl197uW_nd8CPdRbvd--23" style="edgeStyle=orthogonalEdgeStyle;rounded=0;orthogonalLoop=1;jettySize=auto;html=1;entryX=0.75;entryY=1;entryDx=0;entryDy=0;" edge="1" parent="1" source="OOl197uW_nd8CPdRbvd--11" target="OOl197uW_nd8CPdRbvd--4">
          <mxGeometry relative="1" as="geometry">
            <Array as="points">
              <mxPoint x="180" y="500" />
              <mxPoint x="730" y="500" />
            </Array>
          </mxGeometry>
        </mxCell>
        <mxCell id="OOl197uW_nd8CPdRbvd--11" value="&lt;span style=&quot;font-size: 14px;&quot;&gt;&lt;b&gt;jvmTest&lt;/b&gt;&lt;/span&gt;" style="rounded=1;whiteSpace=wrap;html=1;fillColor=#d5e8d4;strokeColor=#82b366;" vertex="1" parent="1">
          <mxGeometry x="120" y="520" width="120" height="80" as="geometry" />
        </mxCell>
        <mxCell id="OOl197uW_nd8CPdRbvd--14" style="edgeStyle=orthogonalEdgeStyle;rounded=0;orthogonalLoop=1;jettySize=auto;html=1;entryX=0.5;entryY=1;entryDx=0;entryDy=0;" edge="1" parent="1" source="OOl197uW_nd8CPdRbvd--13" target="OOl197uW_nd8CPdRbvd--7">
          <mxGeometry relative="1" as="geometry" />
        </mxCell>
        <mxCell id="OOl197uW_nd8CPdRbvd--22" style="edgeStyle=orthogonalEdgeStyle;rounded=0;orthogonalLoop=1;jettySize=auto;html=1;entryX=0.5;entryY=1;entryDx=0;entryDy=0;" edge="1" parent="1" source="OOl197uW_nd8CPdRbvd--13" target="OOl197uW_nd8CPdRbvd--4">
          <mxGeometry relative="1" as="geometry">
            <Array as="points">
              <mxPoint x="340" y="380" />
              <mxPoint x="700" y="380" />
            </Array>
          </mxGeometry>
        </mxCell>
        <mxCell id="OOl197uW_nd8CPdRbvd--13" value="&lt;span style=&quot;font-size: 14px;&quot;&gt;&lt;b&gt;jsTest&lt;/b&gt;&lt;/span&gt;" style="rounded=1;whiteSpace=wrap;html=1;fillColor=#d5e8d4;strokeColor=#82b366;" vertex="1" parent="1">
          <mxGeometry x="280" y="400" width="120" height="80" as="geometry" />
        </mxCell>
        <mxCell id="OOl197uW_nd8CPdRbvd--16" style="edgeStyle=orthogonalEdgeStyle;rounded=0;orthogonalLoop=1;jettySize=auto;html=1;entryX=0.5;entryY=1;entryDx=0;entryDy=0;" edge="1" parent="1" source="OOl197uW_nd8CPdRbvd--15" target="OOl197uW_nd8CPdRbvd--9">
          <mxGeometry relative="1" as="geometry" />
        </mxCell>
        <mxCell id="OOl197uW_nd8CPdRbvd--17" style="edgeStyle=orthogonalEdgeStyle;rounded=0;orthogonalLoop=1;jettySize=auto;html=1;entryX=0.25;entryY=1;entryDx=0;entryDy=0;" edge="1" parent="1" source="OOl197uW_nd8CPdRbvd--15" target="OOl197uW_nd8CPdRbvd--4">
          <mxGeometry relative="1" as="geometry">
            <Array as="points">
              <mxPoint x="500" y="260" />
              <mxPoint x="670" y="260" />
            </Array>
          </mxGeometry>
        </mxCell>
        <mxCell id="OOl197uW_nd8CPdRbvd--15" value="&lt;span style=&quot;font-size: 14px;&quot;&gt;&lt;b&gt;nativeTest&lt;/b&gt;&lt;/span&gt;" style="rounded=1;whiteSpace=wrap;html=1;fillColor=#d5e8d4;strokeColor=#82b366;" vertex="1" parent="1">
          <mxGeometry x="440" y="280" width="120" height="80" as="geometry" />
        </mxCell>
      </root>
    </mxGraphModel>
  </diagram>
</mxfile>
